<?xml version="1.0" encoding="utf-8"?>
<!-- Generator: Adobe Illustrator 16.2.0, SVG Export Plug-In . SVG Version: 6.00 Build 0)  -->
<!DOCTYPE svg PUBLIC "-//W3C//DTD SVG 1.1//EN" "http://www.w3.org/Graphics/SVG/1.1/DTD/svg11.dtd">
<svg version="1.1" id="logoipsum" xmlns="http://www.w3.org/2000/svg" xmlns:xlink="http://www.w3.org/1999/xlink" x="0px" y="0px"
	 width="86.043px" height="19.872px" viewBox="18.979 52.068 86.043 19.872" enable-background="new 18.979 52.068 86.043 19.872"
	 xml:space="preserve">
<title>logoipsum-2</title>
<path fill="#394149" d="M37.476,59.008c0.251,0,0.335,0.091,0.335,0.335v5.524h2.839c0.244,0,0.334,0.09,0.334,0.334v0.488
	c0,0.244-0.09,0.335-0.334,0.335h-3.739c-0.244,0-0.342-0.091-0.342-0.335v-6.347c0-0.244,0.098-0.335,0.342-0.335H37.476z"/>
<path fill="#394149" d="M43.46,61.442c0-1.611,1.019-2.581,2.79-2.581c1.772,0,2.79,0.969,2.79,2.581v2.148
	c0,1.611-1.025,2.581-2.79,2.581s-2.79-0.97-2.79-2.581V61.442z M47.869,61.442c0-0.907-0.565-1.395-1.583-1.395
	c-1.019,0-1.577,0.495-1.577,1.395v2.162c0,0.914,0.558,1.396,1.577,1.396c1.018,0,1.583-0.502,1.583-1.396V61.442z"/>
<path fill="#394149" d="M57.348,62.181c0.272,0,0.335,0.091,0.335,0.334v1.326c0.015,0.632-0.257,1.236-0.739,1.646
	c-0.592,0.472-1.338,0.705-2.093,0.655c-1.806,0-2.79-0.969-2.79-2.58V61.4c0-1.59,1.019-2.567,2.79-2.567
	c1.395,0,2.302,0.551,2.686,1.653c0.076,0.147,0.019,0.328-0.128,0.404c-0.025,0.013-0.053,0.023-0.081,0.028l-0.544,0.188
	c-0.237,0.083-0.335,0.035-0.418-0.209c-0.238-0.613-0.861-0.986-1.514-0.907c-1.025,0-1.583,0.495-1.583,1.395v2.217
	c0,0.914,0.565,1.396,1.583,1.396c1.019,0,1.646-0.468,1.646-1.151v-0.516h-1.513c-0.251,0-0.342-0.098-0.342-0.342v-0.475
	c0-0.244,0.09-0.334,0.342-0.334H57.348z"/>
<path fill="#394149" d="M60.563,61.442c0-1.611,1.019-2.581,2.791-2.581c1.771,0,2.789,0.969,2.789,2.581v2.148
	c0,1.611-1.025,2.581-2.789,2.581c-1.765,0-2.791-0.97-2.791-2.581V61.442z M64.965,61.442c0-0.907-0.565-1.395-1.576-1.395
	c-1.012,0-1.584,0.495-1.584,1.395v2.162c0,0.914,0.565,1.396,1.584,1.396c1.018,0,1.576-0.502,1.576-1.396V61.442z"/>
<path fill="#394149" d="M69.428,59.21c0-0.153,0.049-0.202,0.203-0.202h0.32c0.154,0,0.188,0.049,0.188,0.202v6.612
	c0,0.153,0,0.202-0.188,0.202h-0.32c-0.154,0-0.203-0.049-0.203-0.202V59.21z"/>
<path fill="#394149" d="M76.494,59.008c1.209-0.001,2.19,0.979,2.191,2.188s-0.979,2.19-2.188,2.192c-0.001,0-0.002,0-0.003,0
	h-2.093v2.434c0,0.153-0.034,0.202-0.181,0.202h-0.328c-0.146,0-0.203-0.049-0.203-0.202V59.21c0-0.153,0.057-0.202,0.203-0.202
	H76.494z M76.432,62.697c0.84,0,1.52-0.681,1.52-1.521c0-0.839-0.68-1.521-1.52-1.521h-2.093v3.041H76.432z"/>
<path fill="#394149" d="M84.131,58.868c1.106-0.122,2.161,0.496,2.596,1.521c0.055,0.112,0,0.202-0.112,0.258l-0.307,0.139
	c-0.126,0.049-0.175,0.042-0.251-0.09c-0.324-0.76-1.104-1.223-1.926-1.144c-1.178,0-1.82,0.467-1.82,1.304
	c-0.014,0.529,0.364,0.987,0.887,1.074c0.375,0.123,0.764,0.197,1.157,0.223c0.477,0.025,0.946,0.122,1.396,0.286
	c0.708,0.225,1.162,0.914,1.088,1.652c0,1.305-0.949,2.094-2.692,2.094c-1.179,0.135-2.292-0.572-2.671-1.695
	c-0.047-0.094-0.009-0.207,0.084-0.252c0.012-0.006,0.022-0.01,0.034-0.014l0.307-0.111c0.097-0.039,0.206,0.007,0.245,0.104
	c0.002,0.005,0.004,0.01,0.006,0.016c0.32,0.809,1.127,1.316,1.995,1.255c1.317,0,1.967-0.46,1.967-1.396
	c0.025-0.507-0.319-0.958-0.815-1.066c-0.361-0.107-0.734-0.174-1.109-0.195l-0.754-0.098c-0.235-0.051-0.469-0.113-0.697-0.188
	c-0.227-0.068-0.438-0.18-0.621-0.328c-0.374-0.339-0.578-0.828-0.558-1.333C81.606,59.664,82.52,58.868,84.131,58.868z"/>
<path fill="#394149" d="M90.598,63.639c0.063,1.069,0.982,1.884,2.051,1.82c0.98-0.06,1.761-0.84,1.82-1.82V59.21
	c0-0.153,0.049-0.202,0.201-0.202h0.321c0.153,0,0.202,0.049,0.202,0.202v4.423c0,1.582-0.935,2.538-2.657,2.538
	s-2.657-0.956-2.657-2.538V59.21c0-0.153,0.049-0.202,0.195-0.202h0.328c0.146,0,0.195,0.049,0.195,0.202V63.639z"/>
<path fill="#394149" d="M104.818,59.008c0.154,0,0.203,0.049,0.203,0.202v6.612c0,0.153-0.049,0.202-0.203,0.202h-0.293
	c-0.146,0-0.195-0.049-0.195-0.202v-4.024c0-0.586,0.04-1.17,0.119-1.751h-0.042c-0.218,0.531-0.472,1.046-0.76,1.542l-1.5,2.644
	c-0.038,0.094-0.129,0.154-0.229,0.152h-0.195c-0.104,0.001-0.196-0.059-0.238-0.152l-1.52-2.672
	c-0.271-0.489-0.504-0.997-0.697-1.521h-0.043c0.072,0.585,0.109,1.175,0.112,1.765v4.018c0,0.153-0.049,0.202-0.202,0.202h-0.272
	c-0.153,0-0.202-0.049-0.202-0.202V59.21c0-0.153,0.049-0.202,0.202-0.202h0.251c0.117-0.011,0.229,0.053,0.279,0.16l2.441,4.338
	l2.427-4.296c0.077-0.146,0.118-0.167,0.272-0.167L104.818,59.008z"/>
<path fill="#394149" d="M25.068,64.477v5.043c0,0.402-0.326,0.729-0.729,0.729c-0.402,0-0.729-0.326-0.729-0.729v-5.037
	c0.203,0.148,0.446,0.231,0.698,0.238C24.582,64.729,24.85,64.643,25.068,64.477z M31.275,63.019c-0.385,0-0.697,0.312-0.697,0.697
	v0.879c0,0.402,0.326,0.729,0.729,0.729c0.403,0,0.729-0.327,0.729-0.729V63.75c0.021-0.384-0.274-0.713-0.659-0.733
	C31.343,63.015,31.309,63.016,31.275,63.019z M22.027,66.387c-0.251-0.007-0.494-0.09-0.698-0.236v5.057
	c0,0.404,0.328,0.732,0.732,0.732c0.405,0,0.732-0.328,0.732-0.732l0,0v-5.021C22.566,66.332,22.297,66.402,22.027,66.387z
	 M29.001,61.505c-0.384-0.02-0.712,0.277-0.731,0.662c0,0.012,0,0.024,0,0.036v3.886c0,0.404,0.327,0.732,0.731,0.732
	c0.404,0,0.732-0.326,0.733-0.731c0-0.001,0-0.001,0-0.001v-3.837c0.021-0.385-0.273-0.713-0.658-0.735
	c-0.037-0.002-0.073-0.001-0.109,0.002L29.001,61.505z M26.686,62.998c-0.263-0.002-0.519-0.086-0.732-0.238v5.071
	c0,0.404,0.327,0.733,0.731,0.733c0.405,0,0.733-0.327,0.733-0.732c0,0,0,0,0-0.001v-5.063c-0.221,0.164-0.492,0.25-0.767,0.244
	L26.686,62.998z M20.443,66.883V52.716c-0.004-0.359-0.296-0.648-0.656-0.648h-0.153c-0.359,0-0.652,0.289-0.656,0.648v14.167
	c0,0.361,0.294,0.655,0.656,0.655h0.153C20.15,67.538,20.443,67.244,20.443,66.883z M22.104,65.85H21.95
	c-0.362,0-0.656-0.293-0.656-0.655v-10.79c0.004-0.359,0.296-0.648,0.656-0.648h0.153c0.359,0,0.652,0.289,0.656,0.648v10.805
	c0,0.361-0.293,0.655-0.656,0.655V65.85z M24.412,64.189h-0.16c-0.358,0-0.649-0.289-0.649-0.648l0,0v-7.463
	c-0.004-0.358,0.284-0.651,0.642-0.655c0.002,0,0.005,0,0.007,0h0.16c0.359,0.003,0.649,0.296,0.649,0.655v7.463
	C25.061,63.9,24.771,64.189,24.412,64.189L24.412,64.189z M26.721,62.481h-0.146c-0.359,0-0.651-0.29-0.655-0.649v-4.018
	c-0.023-0.361,0.251-0.673,0.612-0.696c0.014-0.001,0.029-0.001,0.043-0.001h0.154c0.362,0,0.655,0.293,0.655,0.656v4.045
	c0.004,0.362-0.286,0.659-0.648,0.663c-0.002,0-0.005,0-0.007,0H26.721z M29.037,60.981h-0.153c-0.362,0-0.656-0.293-0.656-0.655
	v-1.04c0.004-0.359,0.296-0.648,0.656-0.648h0.153c0.359,0,0.652,0.289,0.656,0.648v1.04c0,0.359-0.29,0.652-0.649,0.655H29.037z"/>
</svg>
